<?xml version="1.0" standalone="no"?>
<!DOCTYPE svg PUBLIC "-//W3C//DTD SVG 20010904//EN"
 "http://www.w3.org/TR/2001/REC-SVG-20010904/DTD/svg10.dtd">
<svg version="1.0" xmlns="http://www.w3.org/2000/svg"
 width="713.000000pt" height="713.000000pt" viewBox="0 0 713.000000 713.000000"
 preserveAspectRatio="xMidYMid meet">
<metadata>
Created by potrace 1.14, written by Peter Selinger 2001-2017
</metadata>
<g transform="translate(0.000000,713.000000) scale(0.100000,-0.100000)"
fill="#000000" stroke="none">
<path d="M3545 7121 c3 -5 1 -12 -5 -16 -5 -3 -10 -12 -10 -18 0 -7 4 -6 10 3
8 12 10 11 10 -7 0 -13 -4 -23 -10 -23 -5 0 -10 -8 -10 -17 0 -14 2 -15 9 -5
6 10 10 9 14 -7 4 -15 0 -21 -11 -21 -14 0 -14 -2 -3 -9 12 -8 12 -14 1 -40
-8 -21 -9 -35 -2 -44 9 -12 22 -77 15 -77 -2 0 -8 10 -12 23 -8 20 -9 18 -9
-10 1 -20 5 -30 12 -26 6 3 5 0 -1 -8 -16 -16 -17 -33 -3 -24 13 8 8 -17 -5
-27 -6 -5 -4 -12 5 -18 13 -9 13 -11 0 -20 -8 -5 -10 -10 -5 -10 6 0 11 -20
11 -45 1 -24 -1 -43 -5 -41 -3 2 -7 -12 -8 -32 -2 -27 0 -33 8 -22 9 14 5 -19
-7 -58 -2 -7 1 -10 6 -7 6 3 10 1 10 -4 0 -6 -5 -11 -11 -11 -5 0 -7 -5 -4
-10 4 -6 11 -8 16 -4 5 3 8 -7 7 -24 -1 -18 -7 -28 -14 -25 -7 2 -15 0 -18 -5
-3 -6 1 -12 9 -16 18 -6 20 -37 3 -54 -9 -9 -7 -17 8 -34 12 -15 13 -18 3 -10
-13 10 -18 10 -21 0 -7 -17 2 -39 12 -33 4 3 7 -6 6 -19 0 -13 -4 -22 -7 -20
-4 2 -9 -3 -13 -11 -3 -8 -1 -15 3 -15 12 0 23 -32 14 -39 -13 -9 -16 -84 -4
-76 6 3 11 2 11 -4 0 -5 -6 -12 -12 -14 -10 -4 -10 -6 0 -6 14 -1 17 -41 2
-41 -5 0 -10 -4 -10 -10 0 -5 7 -10 16 -10 8 0 12 -5 9 -10 -4 -6 -10 -8 -15
-5 -4 3 -11 -2 -14 -11 -3 -9 -2 -12 4 -9 7 4 8 -17 5 -59 -5 -54 -3 -67 10
-72 12 -5 13 -9 4 -20 -9 -11 -8 -18 2 -31 12 -14 12 -16 0 -8 -11 6 -13 3 -9
-13 4 -12 2 -25 -3 -28 -5 -3 -9 -11 -9 -17 0 -7 4 -6 10 3 5 8 11 12 14 9 3
-2 2 -10 -3 -17 -5 -9 -16 -9 -41 -2 -45 13 -145 13 -191 0 -59 -16 -139 -80
-184 -146 l-42 -61 -7 -179 c-20 -500 -146 -1376 -208 -1452 -49 -58 -369
-112 -838 -142 -447 -27 -841 -37 -925 -22 l-40 8 2 99 c2 129 24 287 78 560
66 329 79 434 79 645 1 215 -10 263 -72 322 -46 44 -80 62 -162 83 -112 29
-204 6 -283 -72 -70 -67 -75 -88 -108 -391 -131 -1223 -250 -2058 -383 -2712
-47 -226 -51 -275 -32 -349 21 -80 48 -133 99 -188 80 -87 183 -113 288 -74
172 65 266 301 284 716 10 227 44 529 82 723 13 68 20 85 37 92 49 18 509 54
888 70 136 5 341 16 455 24 114 8 267 18 339 21 130 7 132 6 148 -16 29 -42
15 -263 -40 -634 -99 -675 -100 -688 -79 -761 20 -68 86 -143 160 -182 44 -24
61 -27 150 -27 86 0 107 4 155 26 67 32 111 68 149 123 51 74 59 125 65 426 6
283 12 398 46 920 34 501 89 930 119 930 11 0 12 -3 4 -8 -8 -5 -9 -13 -3 -22
5 -8 5 -21 -1 -31 -7 -13 -5 -21 8 -28 17 -10 17 -10 1 -11 -10 0 -18 -5 -18
-11 0 -5 6 -7 13 -3 10 6 10 4 0 -7 -18 -19 -16 -29 5 -22 15 5 14 4 -2 -9
-14 -11 -16 -17 -6 -23 10 -6 9 -9 -1 -16 -12 -8 -11 -11 1 -19 8 -5 10 -10 5
-10 -16 0 -16 -40 1 -47 7 -3 11 -9 8 -14 -3 -5 -9 -7 -13 -4 -9 5 -5 -55 4
-63 2 -3 0 -13 -6 -24 -7 -14 -7 -23 2 -34 7 -9 7 -14 1 -14 -14 0 -8 -46 9
-67 12 -15 12 -16 -6 -10 -20 7 -20 7 -1 -8 11 -8 15 -15 8 -15 -6 0 -9 -7 -5
-17 4 -10 2 -14 -4 -10 -13 8 -10 -49 2 -61 5 -4 5 0 0 8 -5 8 -4 12 0 7 11
-10 14 -68 3 -61 -4 3 -9 -5 -9 -18 -1 -13 -2 -30 -3 -38 -1 -8 3 -21 9 -29 8
-12 7 -13 -4 -6 -11 6 -13 4 -7 -11 13 -31 14 -48 5 -66 -5 -10 -5 -19 0 -23
6 -3 6 -18 1 -36 -8 -26 -7 -30 7 -25 14 6 14 4 1 -16 -18 -29 -17 -80 2 -104
14 -17 13 -18 -1 -6 -14 10 -17 9 -22 -7 -3 -14 -1 -18 9 -14 17 6 18 -1 4
-28 -6 -10 -7 -19 -2 -19 5 0 9 -7 9 -15 0 -8 -4 -12 -9 -9 -14 9 -9 -14 8
-30 14 -15 14 -16 -3 -17 -10 0 -13 -3 -5 -6 6 -2 9 -9 6 -14 -3 -6 0 -17 8
-26 9 -12 9 -15 1 -9 -13 7 -18 -7 -13 -29 3 -14 3 -26 -4 -54 -3 -14 0 -31 7
-39 9 -12 9 -16 0 -19 -7 -3 -13 -9 -13 -14 0 -6 5 -7 10 -4 6 3 10 2 10 -4 0
-5 -6 -12 -12 -14 -10 -4 -10 -6 0 -6 14 -1 17 -41 2 -41 -5 0 -10 -14 -10
-31 0 -21 4 -28 13 -23 9 6 9 5 0 -7 -7 -9 -8 -20 -3 -29 5 -8 5 -21 0 -30 -5
-9 -5 -22 1 -31 5 -7 9 -18 9 -24 0 -5 -4 -4 -9 3 -7 11 -9 11 -14 -2 -4 -9
-3 -15 1 -15 25 4 32 -2 23 -19 -7 -13 -6 -23 2 -32 9 -9 9 -11 0 -6 -8 4 -11
-7 -9 -39 1 -25 -2 -45 -8 -45 -5 0 -1 -7 10 -15 16 -13 16 -14 2 -9 -23 8
-23 -4 0 -30 16 -20 16 -20 -1 -7 -15 12 -17 11 -14 -7 2 -12 6 -25 10 -28 4
-4 1 -14 -6 -22 -9 -13 -9 -14 1 -8 6 4 12 3 12 -3 0 -5 -5 -11 -11 -13 -7 -2
-7 -12 0 -30 7 -19 7 -28 -2 -32 -8 -3 -6 -10 7 -20 11 -9 15 -16 10 -16 -6 0
-11 -21 -11 -48 -1 -26 -2 -52 -3 -57 -5 -25 1 -46 12 -39 7 4 8 3 4 -5 -4 -6
-12 -9 -17 -6 -5 4 -9 -3 -9 -15 0 -14 4 -19 13 -14 7 5 6 0 -3 -11 -9 -11
-10 -16 -2 -11 8 5 12 1 12 -13 0 -10 -6 -22 -12 -24 -10 -4 -9 -6 1 -6 11 -1
11 -4 1 -16 -10 -12 -10 -15 1 -15 10 0 10 -3 1 -12 -8 -8 -8 -17 0 -31 7 -14
7 -22 -1 -27 -13 -8 -11 -31 3 -41 5 -4 5 -15 1 -25 -15 -34 -14 -48 3 -67 11
-13 12 -17 3 -15 -9 2 -14 -9 -15 -35 0 -20 4 -37 9 -37 7 0 7 -3 0 -8 -14
-10 -18 -42 -5 -42 5 0 10 -5 10 -11 0 -5 -6 -7 -12 -4 -7 4 -4 -1 6 -9 11 -9
15 -16 9 -16 -6 0 -10 -26 -11 -63 0 -34 -2 -77 -5 -94 -3 -18 -1 -36 5 -39 7
-5 8 -2 3 6 -5 9 -4 11 3 6 15 -9 15 -11 -4 -31 -13 -12 -14 -19 -5 -28 15
-15 14 -30 -1 -21 -8 5 -7 0 2 -11 9 -12 10 -16 2 -11 -9 5 -12 -1 -10 -22 1
-20 6 -28 15 -25 9 4 11 0 7 -11 -3 -9 -10 -16 -15 -16 -14 0 -11 -28 4 -33 9
-4 8 -8 -3 -16 -13 -10 -13 -12 0 -21 9 -6 11 -13 5 -17 -11 -9 -14 -74 -3
-66 13 7 9 -12 -4 -26 -11 -11 -10 -12 2 -6 13 8 13 6 2 -7 -7 -9 -9 -19 -4
-22 5 -3 7 -18 4 -32 -3 -19 -1 -25 6 -20 8 5 10 1 6 -9 -5 -12 -9 -13 -20 -4
-19 16 -18 4 2 -15 8 -9 12 -16 7 -16 -8 0 -8 -43 0 -85 2 -11 0 -33 -6 -48
-6 -20 -6 -36 2 -53 6 -14 8 -23 3 -20 -4 2 -8 -6 -8 -20 0 -13 3 -24 7 -24 4
0 3 -19 -2 -41 -6 -23 -8 -47 -5 -53 2 -6 5 -3 5 7 1 9 6 17 11 17 15 0 12
-16 -6 -34 -14 -15 -11 -21 10 -17 5 1 3 -5 -4 -14 -17 -21 -21 -43 -9 -51 5
-3 5 -12 0 -23 -7 -13 -5 -25 6 -41 9 -13 12 -20 6 -17 -6 4 -13 0 -16 -7 -3
-8 -1 -17 6 -20 8 -3 7 -5 -2 -5 -11 -1 -10 -5 5 -16 14 -11 15 -14 2 -9 -13
4 -16 0 -14 -19 2 -13 7 -30 11 -37 5 -9 4 -11 -3 -6 -8 5 -12 -2 -12 -21 0
-22 2 -25 10 -13 6 10 10 11 10 3 0 -19 -4 -28 -11 -26 -3 1 -5 -8 -4 -20 1
-12 3 -28 4 -34 1 -10 376 -13 1796 -13 l1795 0 0 3565 0 3565 -1796 0 c-1105
0 -1793 -4 -1789 -9z m3160 -1526 c80 -30 168 -87 200 -130 37 -48 40 -84 15
-166 -19 -65 -30 -81 -90 -141 -104 -104 -108 -105 -420 -113 -436 -11 -918
-74 -1207 -158 -122 -35 -125 -38 -161 -164 -75 -260 -152 -751 -152 -969 l0
-62 133 29 c72 16 231 49 352 73 121 25 309 70 418 101 303 86 369 97 522 93
210 -6 255 -40 255 -186 0 -38 -5 -84 -12 -103 -18 -54 -78 -139 -120 -169
-78 -57 -296 -113 -803 -206 -217 -40 -625 -139 -717 -173 -84 -32 -96 -46
-113 -126 -26 -127 -35 -286 -35 -625 0 -395 -8 -493 -44 -555 -38 -64 -106
-95 -208 -95 -97 0 -167 25 -250 89 -78 59 -123 125 -139 199 -27 131 34 787
141 1512 108 732 180 1255 180 1308 0 34 -12 91 -30 149 -16 51 -30 110 -30
130 0 81 95 206 198 261 53 28 69 32 138 32 44 -1 108 -7 144 -15 132 -29 232
-20 640 60 292 56 547 99 710 119 179 22 183 23 307 24 98 2 121 -1 178 -23z
m-3158 -1460 c0 -8 -4 -15 -9 -15 -4 0 -8 7 -8 15 0 8 4 15 8 15 5 0 9 -7 9
-15z m13 -269 c0 -3 -4 -8 -10 -11 -5 -3 -10 -1 -10 4 0 6 5 11 10 11 6 0 10
-2 10 -4z"/>
</g>
</svg>
